<svg height="24" viewBox="0 0 120 120" fill="none" xmlns="http://www.w3.org/2000/svg"><path fill-rule="evenodd" clip-rule="evenodd" d="M44.445 3.2v3.2h-12.4v6h-12.4v6.4h-6.491l.291 6.4.291 6.4H6.761l.29 6.2.291 6.2H.722l.262 4.863c.143 2.674.261 9.694.261 15.6V75.2h6v12.4h6.4V100h6V87.6h-5.979l-.11-6.1-.11-6.1-3.1-.117-3.1-.117V44h6.4V31.6h6V19.22l6.3-.11 6.3-.11.116-3.1.117-3.1h12.366V6.4h31.2v6.4h12.8v6h12.4v12.8h6V44h6.4v31.6h-6.4V88h-6v12.4h-12.4v5.878l4.5.259c2.475.143 5.265.26 6.2.261l1.7.002v-6.4h6.4V88h6V75.6h6.4V44h-6.4V31.2h-6V18.8h-6.366l-.117-3.1-.117-3.1-6.1-.11-6.1-.111V6.4h-12.8V0h-31.6v3.2zm-24.4 100.2v3h12.4v6.4h12v-6.4h-12v-6h-12.4v3zm56 6.4v3h-31.2v6h10.737c5.906 0 12.926.118 15.6.261l4.863.262v-6.62l6.2.291 6.2.29V106.8h-12.4v3z" fill="#FFC107"/><path fill-rule="evenodd" clip-rule="evenodd" d="M44.845 9.6v3.2H32.48l-.117 3.1-.117 3.1-6.3.11-6.3.11V31.6h-6V44h-6.4v31.166l3.1.117 3.1.117v12.4l3.1-.13 3.1-.131v12.427l-3.1.137-3.1.136 3.083.081 3.083.08.137 3.1.136 3.1.081-3.1.08-3.1h12.461l-.13 3.1-.13 3.1 6.083-.119 6.083-.12.135 3.32c.077 1.901.17.629.217-2.981l.081-6.3h5.966l.117-3.1.117-3.1 6.3-.11 6.3-.11v-5.946l-3.1-.117-3.1-.117-.117-3.1-.117-3.1h6.434V69.2h6v-6.4h-6V50.4h-6.4V44h5.966l.117-3.1.117-3.1 3.1-.117 3.1-.117V31.6h-6V19.2h-6.4v-6.4h-6.4V6.832l3.3-.134c1.868-.077.566-.171-3-.217l-6.3-.081v3.2zm43.737 6.2c.002 1.76.072 2.43.156 1.489.085-.94.084-2.38-.002-3.2-.086-.819-.155-.049-.154 1.711zm-50.137 25V44h-6v24.8h6v6.4h12.8v6.4h-19.2v-6h-6v-38h12.4v3.2zm18.8 15.8v6.2h-6.4V50.4h6.4v6.2zm51.5 18.893c.935.084 2.465.084 3.4 0s.17-.153-1.7-.153c-1.87 0-2.635.069-1.7.153zM88.582 103.4c.002 1.76.072 2.43.156 1.489.085-.94.084-2.38-.002-3.2-.086-.819-.155-.049-.154 1.711z" fill="#FF990A"/><path fill-rule="evenodd" clip-rule="evenodd" d="M57.382 9.8c.002 1.76.072 2.43.156 1.489.085-.94.084-2.38-.002-3.2-.086-.819-.155-.049-.154 1.711zm18.436.099L75.845 13l6.2.015 6.2.015-6.083-.125-6.084-.125-.143-2.991-.144-2.992.027 3.102zm-6 6L69.845 19l6.083.11 6.084.111.136 3.089.136 3.09.081-3.3.08-3.3H70.08l-.144-3.001-.144-3.002.027 3.102zM13.38 28.4c0 1.65.071 2.325.157 1.5.087-.825.087-2.175 0-3-.086-.825-.157-.15-.157 1.5zm68.828 9.4c0 3.52.062 4.906.136 3.081.074-1.825.074-4.705 0-6.4-.076-1.695-.137-.201-.136 3.319zm-15.462.097l-3.1.137V44h6v-5.968l3.3-.134 3.3-.135-3.2-.001c-1.76-.001-4.595.06-6.3.135zm30.99 0l3.089.136.111 6.084.11 6.083 3.093.117 3.093.116.118 9.384.118 9.383-.011-9.5-.011-9.5-3.1-.117-3.1-.117V37.6l-3.3.08-3.3.081 3.09.136zM26.045 56.6v18.6h6.4v6.4h18.4v-6h-12.4v-6.4h-6.4V44h6.4v-6h-12.4v18.6zm31.483-12.349c-.156.155-.283 1.512-.283 3.016V50H63.68l-.117-2.9-.118-2.9-2.817-.116c-1.55-.064-2.945.011-3.1.167zm51.228.042c.94.085 2.38.084 3.2-.002.819-.086.049-.155-1.711-.154-1.76.002-2.43.072-1.489.156zM51.246 56.6v6.2h6V50.4h-6v6.2zm18.536 9.2c.002 1.76.072 2.43.156 1.489.085-.94.084-2.38-.002-3.2-.086-.819-.155-.049-.154 1.711zm12.343 9.29l-.08 12.49-6.3.126-6.3.126 6.4-.016 6.4-.016.107-9.283.108-9.284 3.092-.136 3.093-.136-3.083-.081-3.083-.08-.137-3.1c-.075-1.705-.172 2.52-.217 9.39zm18.882.31c0 3.52.062 4.906.136 3.081.074-1.825.074-4.705-.001-6.4-.075-1.695-.136-.201-.135 3.319zm-98.25.093c.94.085 2.38.084 3.2-.002.818-.086.048-.155-1.712-.154-1.76.002-2.43.072-1.489.156zM13.406 94c0 3.41.06 4.805.135 3.1a85.45 85.45 0 000-6.2c-.075-1.705-.136-.31-.136 3.1zm68.806.54c-.114.297-.144 1.782-.066 3.3l.141 2.76.08-3.09.077-3.09 6.3-.121 6.3-.121-6.313-.089c-4.99-.07-6.355.024-6.519.451zm-12.568 8.86v3h-12.4l.08 3.3.081 3.3.136-3.1.137-3.1h12.366v-3.2c0-1.76-.09-3.2-.2-3.2-.11 0-.2 1.35-.2 3zm6.14 6.2c0 1.87.07 2.635.153 1.7.084-.935.084-2.465 0-3.4s-.153-.17-.153 1.7z" fill="#7F4C00"/><path fill-rule="evenodd" clip-rule="evenodd" d="M54.145 6.698l-3.3.134V12.8h6.4v6.4h6.4v12.4h6v5.966l-3.1.117-3.1.117.124 6.083.124 6.084-3.324.135-3.324.135 3.3.082 3.3.081v12.4h18.8v6h6v12.8H82.48l-.117 3.1-.117 3.1-3.1.117-3.1.117V94h-6.4v-6.4h6.4v-6h6V69.24l-6.1-.119c-3.355-.066-7.495-.067-9.2-.003l-3.1.117V81.6h-6.434l.117 3.1.117 3.1 3.1.117 3.1.117v5.946l-6.3.11-6.3.11-.117 3.1-.117 3.1h-5.966v12.4h12.4v-6.4h12.4v-6h12.366l.117-3.1.117-3.1 6.3-.11 6.3-.11V81.6h6V69.2h6.4V50.434l-3.1-.117-3.1-.117-.11-6.1-.111-6.1h-5.959l-.11-6.3-.11-6.3-6.3-.11-6.3-.11v-5.959l-6.1-.11-6.1-.11-.117-3.1-.117-3.1H57.245V6.813l9.5-.114 9.5-.115-9.4-.01c-5.17-.007-10.885.048-12.7.123zm40.49 12.396l6.19.126.126 6.191.125 6.19-.015-6.3-.016-6.3-6.3-.017-6.3-.015 6.19.125zM82.444 37.8V44h-18.8v-5.916l6.2-.29 6.2-.29V31.6h6.4v6.2zm-53.28.098c1.824.074 4.704.074 6.4 0 1.694-.076.2-.137-3.32-.136-3.52 0-4.906.062-3.08.136zM32.138 56.5l-.094 12.7 3.3-.08 3.3-.08-3.094-.137-3.095-.136-.11-12.484-.113-12.483-.094 12.7zm81.288 3.1c0 8.69.053 12.245.118 7.9.064-4.345.064-11.455 0-15.8-.065-4.345-.118-.79-.118 7.9zM1.023 62.8c0 6.93.055 9.765.121 6.3.067-3.465.067-9.135 0-12.6-.066-3.465-.12-.63-.12 6.3zm49.984-6.2c0 3.52.062 4.906.136 3.081.074-1.825.074-4.705 0-6.4-.076-1.695-.137-.2-.136 3.32zM28.928 75.497l3.084.136.136 3.084.136 3.083.081-3.3.08-3.3-3.3.08-3.3.081 3.083.136zm15.6.002l6.284.121.136 3.09.136 3.09.081-3.3.08-3.3-6.5.09-6.5.088 6.283.121zM8.756 87.893c.94.085 2.38.084 3.2-.002.82-.086.05-.155-1.71-.154-1.76.002-2.43.072-1.49.156zm92.089 5.897v6.19l-6.3.126-6.3.126 6.4-.016 6.4-.016.11-6.083.111-6.084 3.089-.136 3.09-.136-3.3-.08-3.3-.08v6.19zm-74.817 12.904l5.984.127.142 2.889.141 2.89-.025-3-.025-3-6.1-.016-6.1-.016 5.983.126zm54.74.005c2.708.069 7.028.069 9.6 0 2.572-.07.357-.127-4.923-.126-5.28 0-7.385.057-4.677.126zm-29.823 12.4c3.465.067 9.135.067 12.6 0 3.465-.066.63-.121-6.3-.121s-9.765.055-6.3.121z" fill="#B26A00"/><path fill-rule="evenodd" clip-rule="evenodd" d="M8.345 31.493c.935.084 2.465.084 3.4 0s.17-.153-1.7-.153c-1.87 0-2.635.069-1.7.153zm67.7 3.307V38h-6.4v6h12.4V31.6h-6v3.2zm-6 31v3h12v-6h-12v3zm12.4 9.6v6.2h6V69.2h-6v6.2zm-6.4 9.2v3h6v-6h-6v3zm-6 6.4v3h6v-6h-6v3zm18.54 19c0 1.87.07 2.635.153 1.7.084-.935.084-2.465 0-3.4s-.153-.17-.153 1.7z" fill="#593500"/><path fill-rule="evenodd" clip-rule="evenodd" d="M57.645 9.8v3h12.4v6h12.4v6.4h12.4v12.4h6.4v12.366l3.1.117 3.1.117.107 9.5.107 9.5h-6.414v12.4h-6.4v12.8h-12.4v6h-12.4v6.4h-12.4v6h18v-6.4h12.8V100h12.4V87.6h6.4V75.2h6V44.4h-6V31.6h-6.4V19.2h-12.4v-5.98l-6.3-.11-6.3-.11-.117-3.1-.117-3.1H57.645v3zm15.3 59.297a85.45 85.45 0 006.2 0c1.705-.075.31-.136-3.1-.136s-4.805.061-3.1.136zM69.782 91c.002 1.76.072 2.43.156 1.489.085-.94.084-2.38-.002-3.2-.086-.819-.155-.049-.154 1.711zm-25.2 24.8c.002 1.76.072 2.43.156 1.489.085-.94.084-2.38-.002-3.2-.086-.819-.155-.049-.154 1.711z" fill="#7C4A00"/></svg>